<?xml version="1.0" encoding="utf-8"?>
<!-- Generator: Adobe Illustrator 25.2.3, SVG Export Plug-In . SVG Version: 6.00 Build 0)  -->
<svg version="1.1" id="Layer_1" xmlns="http://www.w3.org/2000/svg" xmlns:xlink="http://www.w3.org/1999/xlink" x="0px" y="0px"
	 viewBox="0 0 512 512" style="enable-background:new 0 0 512 512;" xml:space="preserve">
<style type="text/css">
	.st0{fill:#5F0B5F;}
</style>
<g>
	<path class="st0" d="M74.1,345.7c-2.6,3.3-7.3,3.8-10.5,1.2c-3.3-2.6-3.8-7.3-1.2-10.5l25.8-32.7c3-3.9,8.9-3.7,11.8,0.1l37.3,47.3
		l30.3-38.4c2.6-3.2,7.2-3.8,10.5-1.2c3.2,2.6,3.8,7.3,1.2,10.5c-23.3,29.5-46.6,59-69.8,88.5h228.8L223.9,265.6l-23.5,29.7
		c-2.6,3.2-7.3,3.8-10.5,1.2c-3.3-2.6-3.8-7.3-1.2-10.5l29.3-37.2c3.1-3.9,8.9-3.7,11.8,0.1l116.4,147.4V196.7
		c-110.4,0-220.8,0-331.2,0v199.7l26.3-33.3c2.6-3.3,7.3-3.8,10.5-1.2c3.3,2.6,3.8,7.3,1.2,10.5l-30.1,38.1h67.5l37.4-47.3
		l-33.8-42.8L74.1,345.7z M94.1,212.1c10.3,0,19.6,4.2,26.4,10.9c6.8,6.7,10.9,16.1,10.9,26.4c0,10.3-4.2,19.6-10.9,26.4
		c-6.7,6.7-16.1,10.9-26.4,10.9c-10.3,0-19.6-4.2-26.4-10.9s-10.9-16.1-10.9-26.4c0-10.3,4.2-19.6,10.9-26.4
		C74.4,216.3,83.7,212.1,94.1,212.1L94.1,212.1z M109.8,233.7c-4-4.1-9.6-6.5-15.8-6.5c-6.2,0-11.7,2.5-15.8,6.5
		c-4,4-6.5,9.6-6.5,15.8c0,6.2,2.5,11.7,6.5,15.8c4.1,4,9.6,6.5,15.8,6.5c6.2,0,11.7-2.5,15.8-6.5c4.1-4.1,6.5-9.6,6.5-15.8
		C116.4,243.3,113.9,237.7,109.8,233.7z M361.2,371.7h52.4l-20.5-41c-0.6-1.1-0.9-2.3-0.9-3.6v-51.9c0-4.1,3.4-7.5,7.5-7.5
		c4.1,0,7.5,3.4,7.5,7.5v44.4h14.8V196.7h-14.8v44.4c0,4.1-3.3,7.5-7.5,7.5c-4.1,0-7.5-3.3-7.5-7.5c0-28.1,0-56.1,0-84.2
		c0-6.7,2.7-12.7,7.1-17.1c4.6-4.5,10.7-7.1,17.1-7.1h26.1c6.7,0,12.7,2.7,17.1,7.1c4.4,4.4,7.1,10.4,7.1,17.1v170.1
		c0,1.3-0.3,2.6-0.9,3.6l-23.5,47.1c-2.6,5.2-7.1,8.9-13.1,8.9h-67.9V418c0,4.1-3.3,7.5-7.5,7.5H210.3v13.2c0,4.8,2,9.1,5.1,12.3
		c3.1,3.1,7.5,5.1,12.3,5.1h251.9c4.8,0,9.1-2,12.3-5.1c3.1-3.1,5.1-7.5,5.1-12.3V73.3c0-4.8-2-9.1-5.1-12.3
		c-3.2-3.2-7.5-5.1-12.3-5.1h-173v63.9c0,8.9-3.6,17-9.5,22.9c-5.9,5.9-14,9.5-22.9,9.5h-63.9v29.5h143.3c4.1,0,7.5,3.3,7.5,7.5
		V371.7z M436.9,196.7v122.9h14.7V196.7H436.9z M195.3,181.7v-37c0-2.1,0.9-4,2.2-5.4l96.3-96.3c1.4-1.5,3.4-2.2,5.3-2.2h180.5
		c8.9,0,17,3.7,22.9,9.5c5.9,5.9,9.5,13.9,9.5,22.9v365.4c0,8.9-3.6,17-9.5,22.9s-14,9.5-22.9,9.5H227.7c-8.9,0-17-3.6-22.9-9.5
		c-5.9-5.9-9.5-14-9.5-22.9v-13.2H7.5c-4.1,0-7.5-3.3-7.5-7.5V189.2c0-4.1,3.4-7.5,7.5-7.5H195.3z M291.7,66.5l-70.7,70.7h53.3
		c4.8,0,9.1-2,12.3-5.1c3.1-3.2,5.1-7.5,5.1-12.3L291.7,66.5z M451.7,181.7V157c0-2.5-1-4.8-2.7-6.5c-1.7-1.7-4.1-2.7-6.5-2.7h-26.1
		v0c-2.5,0-4.8,1-6.5,2.7c-1.7,1.7-2.7,4-2.7,6.5v24.7L451.7,181.7L451.7,181.7z M429.4,369.9l17.6-35.3h-35.3L429.4,369.9z"/>
</g>
</svg>
