<svg height="512" viewBox="0 0 60 60" width="512" xmlns="http://www.w3.org/2000/svg"><g id="Page-1" fill="none" fill-rule="evenodd"><g id="041---message-not-sent" fill="rgb(0,0,0)" fill-rule="nonzero"><path id="Shape" d="m55 0h-50c-2.76005315.00330612-4.99669388 2.23994685-5 5v38c.00330612 2.7600532 2.23994685 4.9966939 5 5h13.13c.8714578-.003831 1.7009235.3739961 2.27 1.034l7.3 9.886c.5766007.6938328 1.4348261 1.0913491 2.3369307 1.0824289.9021047-.0089202 1.7523016-.4233297 2.3150693-1.1284289l2.263-3.074c4.328073 4.1761895 10.7339854 5.3593844 16.2683127 3.0048153 5.5343274-2.354569 9.1241711-7.7904393 9.1166873-13.8048153 0-.426-.029-.846-.064-1.263.0401392-.2436698.0615352-.4900586.064-.737v-38c-.0033061-2.76005315-2.2399468-4.99669388-5-5zm-10 58c-7.1797017 0-13-5.8202983-13-13s5.8202983-13 13-13 13 5.8202983 13 13c-.008266 7.1762751-5.8237249 12.991734-13 13zm0-28c-5.7511928-.0082482-10.9992779 3.277073-13.5045818 8.4539195-2.5053038 5.1768464-1.8253898 11.3309873 1.7495818 15.8360805l-2.473 3.351c-.4060554.4230125-1.0759003.443459-1.507.046l-7.3-9.887c-.9474667-1.1399067-2.352745-1.7994897-3.835-1.8h-13.13c-1.65685425 0-3-1.3431458-3-3v-38c0-1.65685425 1.34314575-3 3-3h50c1.6568542 0 3 1.34314575 3 3v32.548c-2.668978-4.6624743-7.6276571-7.5415596-13-7.548z"/><path id="Shape" d="m46 35h-2c-1.1045695 0-2 .8954305-2 2v8c0 1.1045695.8954305 2 2 2h2c1.1045695 0 2-.8954305 2-2v-8c0-1.1045695-.8954305-2-2-2zm-2 10v-8h2v8z"/><path id="Shape" d="m46 49h-2c-1.1045695 0-2 .8954305-2 2v2c0 1.1045695.8954305 2 2 2h2c1.1045695 0 2-.8954305 2-2v-2c0-1.1045695-.8954305-2-2-2zm-2 4v-2h2v2z"/><path id="Shape" d="m8 9h3c.5522847 0 1-.44771525 1-1s-.4477153-1-1-1h-3c-.55228475 0-1 .44771525-1 1s.44771525 1 1 1z"/><path id="Shape" d="m16 9h20c.5522847 0 1-.44771525 1-1s-.4477153-1-1-1h-20c-.5522847 0-1 .44771525-1 1s.4477153 1 1 1z"/><path id="Shape" d="m52 7h-11c-.5522847 0-1 .44771525-1 1s.4477153 1 1 1h11c.5522847 0 1-.44771525 1-1s-.4477153-1-1-1z"/><path id="Shape" d="m52 13h-3c-.5522847 0-1 .4477153-1 1s.4477153 1 1 1h3c.5522847 0 1-.4477153 1-1s-.4477153-1-1-1z"/><path id="Shape" d="m45 14c0-.5522847-.4477153-1-1-1h-20c-.5522847 0-1 .4477153-1 1s.4477153 1 1 1h20c.5522847 0 1-.4477153 1-1z"/><path id="Shape" d="m8 15h11c.5522847 0 1-.4477153 1-1s-.4477153-1-1-1h-11c-.55228475 0-1 .4477153-1 1s.44771525 1 1 1z"/><path id="Shape" d="m8 21h3c.5522847 0 1-.4477153 1-1s-.4477153-1-1-1h-3c-.55228475 0-1 .4477153-1 1s.44771525 1 1 1z"/><path id="Shape" d="m16 19c-.5522847 0-1 .4477153-1 1s.4477153 1 1 1h20c.5522847 0 1-.4477153 1-1s-.4477153-1-1-1z"/><path id="Shape" d="m11 31h-3c-.55228475 0-1 .4477153-1 1s.44771525 1 1 1h3c.5522847 0 1-.4477153 1-1s-.4477153-1-1-1z"/><path id="Shape" d="m31 31h-15c-.5522847 0-1 .4477153-1 1s.4477153 1 1 1h15c.5522847 0 1-.4477153 1-1s-.4477153-1-1-1z"/><path id="Shape" d="m52 19h-11c-.5522847 0-1 .4477153-1 1s.4477153 1 1 1h11c.5522847 0 1-.4477153 1-1s-.4477153-1-1-1z"/><path id="Shape" d="m52 25h-3c-.5522847 0-1 .4477153-1 1s.4477153 1 1 1h3c.5522847 0 1-.4477153 1-1s-.4477153-1-1-1z"/><path id="Shape" d="m44 25h-20c-.5522847 0-1 .4477153-1 1s.4477153 1 1 1h20c.5522847 0 1-.4477153 1-1s-.4477153-1-1-1z"/><path id="Shape" d="m8 27h11c.5522847 0 1-.4477153 1-1s-.4477153-1-1-1h-11c-.55228475 0-1 .4477153-1 1s.44771525 1 1 1z"/></g></g></svg>