<?xml version="1.0" encoding="utf-8"?>
<!-- Generator: Adobe Illustrator 25.2.3, SVG Export Plug-In . SVG Version: 6.00 Build 0)  -->
<svg version="1.1" id="Icons" xmlns="http://www.w3.org/2000/svg" xmlns:xlink="http://www.w3.org/1999/xlink" x="0px" y="0px"
	 viewBox="0 0 512 512" style="enable-background:new 0 0 512 512;" xml:space="preserve">
<style type="text/css">
	.st0{fill:#A52A2A;}
</style>
<path class="st0" d="M470.5,441.1h-429c-15.3,0-27.7-12.4-27.7-27.7V143.6c0-15.3,12.4-27.7,27.7-27.7h139.3l20.8-34.6
	c3.7-6.3,10.5-10.2,17.9-10.2H344c7.3,0,14.1,3.9,17.9,10.2l20.8,34.6h87.9c15.3,0,27.7,12.4,27.7,27.7v269.8
	C498.2,428.7,485.8,441.1,470.5,441.1z M41.5,129.7c-7.6,0-13.8,6.2-13.8,13.8v269.8c0,7.6,6.2,13.8,13.8,13.8h429
	c7.6,0,13.8-6.2,13.8-13.8V143.6c0-7.6-6.2-13.8-13.8-13.8h-92c-2.4,0-4.7-1.3-6-3.4l-22.7-38.2c-1.2-2.1-3.5-3.4-6-3.4H219.4
	c-2.4,0-4.7,1.3-6,3.4l-22.6,38.2c-1.2,2.1-3.5,3.4-6,3.4H41.5z"/>
<path class="st0" d="M136.9,129.7H81.1c-3.8,0-6.9-3.1-6.9-6.9V87.2c0-7.1,5.8-12.9,12.9-12.9H131c7.1,0,12.9,5.8,12.9,12.9l0,0
	v35.6C143.8,126.6,140.7,129.7,136.9,129.7z M88,115.9h42V88.2H88V115.9z"/>
<path class="st0" d="M114.4,346.3H20.8c-3.8,0-6.9-3.1-6.9-6.9V219.7c0-3.8,3.1-6.9,6.9-6.9h93.7c3.8,0,6.9,3.1,6.9,6.9
	c0,3.8-3.1,6.9-6.9,6.9H27.7v105.9h86.8c3.8,0,6.9,3.1,6.9,6.9C121.4,343.2,118.3,346.3,114.4,346.3z"/>
<path class="st0" d="M491.2,346.3H312c-3.8,0-6.9-3.1-6.9-6.9c0-3.8,3.1-6.9,6.9-6.9h172.4V226.6H312c-3.8,0-6.9-3.1-6.9-6.9
	c0-3.8,3.1-6.9,6.9-6.9h179.3c3.8,0,6.9,3.1,6.9,6.9v119.7C498.2,343.2,495.1,346.3,491.2,346.3z"/>
<path class="st0" d="M212.8,402.3c-67.8,0-122.8-55-122.8-122.8s55-122.8,122.8-122.8s122.8,55,122.8,122.8l0,0
	C335.5,347.3,280.6,402.3,212.8,402.3z M212.8,170.6c-60.2,0-109,48.8-109,109s48.8,109,109,109s109-48.8,109-109
	C321.7,219.4,272.9,170.6,212.8,170.6z"/>
<path class="st0" d="M212.8,357.6c-43.1,0.1-78.1-34.7-78.3-77.8s34.7-78.1,77.8-78.3s78.1,34.7,78.3,77.8c0,0.1,0,0.1,0,0.2
	C290.6,322.5,255.8,357.4,212.8,357.6z M212.8,215.3c-35.5-0.1-64.3,28.5-64.4,64s28.5,64.3,64,64.4c35.5,0.1,64.3-28.5,64.4-64
	c0-0.1,0-0.1,0-0.2C276.7,244.2,248.1,215.5,212.8,215.3L212.8,215.3z"/>
<path class="st0" d="M429,194.9h-69.2c-3.8,0-6.9-3.1-6.9-6.9v-33.5c0-3.8,3.1-6.9,6.9-6.9H429c3.8,0,6.9,3.1,6.9,6.9V188
	C435.9,191.8,432.8,194.9,429,194.9z M366.7,181.1h55.4v-19.6h-55.4V181.1z"/>
<path class="st0" d="M378.5,129.7H184.8c-3.8,0-6.9-3.1-6.9-6.9s3.1-6.9,6.9-6.9h193.7c3.8,0,6.9,3.1,6.9,6.9
	S382.4,129.7,378.5,129.7z"/>
</svg>
