<?xml version="1.0" encoding="utf-8"?>
<!-- Generator: Adobe Illustrator 25.2.3, SVG Export Plug-In . SVG Version: 6.00 Build 0)  -->
<svg version="1.1" id="Icons" xmlns="http://www.w3.org/2000/svg" xmlns:xlink="http://www.w3.org/1999/xlink" x="0px" y="0px"
	 viewBox="0 0 512 512" style="enable-background:new 0 0 512 512;" xml:space="preserve">
<style type="text/css">
	.st0{fill:#0000FF;}
</style>
<path class="st0" d="M131.5,138.4H20.8c-3.8,0-6.9-3.1-6.9-6.9V20.8c0-3.8,3.1-6.9,6.9-6.9h110.7c3.8,0,6.9,3.1,6.9,6.9v110.7
	C138.4,135.3,135.3,138.4,131.5,138.4z M27.7,124.5h96.9V27.7H27.7V124.5z"/>
<path class="st0" d="M131.5,498.2H20.8c-3.8,0-6.9-3.1-6.9-6.9V380.5c0-3.8,3.1-6.9,6.9-6.9h110.7c3.8,0,6.9,3.1,6.9,6.9v110.7
	C138.4,495.1,135.3,498.2,131.5,498.2z M27.7,484.3h96.9v-96.9H27.7V484.3z"/>
<path class="st0" d="M491.2,498.2H380.5c-3.8,0-6.9-3.1-6.9-6.9V380.5c0-3.8,3.1-6.9,6.9-6.9h110.7c3.8,0,6.9,3.1,6.9,6.9v110.7
	C498.2,495.1,495.1,498.2,491.2,498.2z M387.5,484.3h96.9v-96.9h-96.9V484.3z"/>
<path class="st0" d="M491.2,138.4H380.5c-3.8,0-6.9-3.1-6.9-6.9V20.8c0-3.8,3.1-6.9,6.9-6.9h110.7c3.8,0,6.9,3.1,6.9,6.9v110.7
	C498.2,135.3,495.1,138.4,491.2,138.4z M387.5,124.5h96.9V27.7h-96.9V124.5z"/>
<path class="st0" d="M131.5,69.2h249.1V83H131.5V69.2z"/>
<path class="st0" d="M69.2,131.5H83v249.1H69.2V131.5z"/>
<path class="st0" d="M131.5,429h249.1v13.8H131.5V429z"/>
<path class="st0" d="M429,131.5h13.8v249.1H429V131.5z"/>
<path class="st0" d="M152.2,366.7c-1.8,0-3.6-0.7-4.9-2c-1.8-1.8-2.4-4.5-1.7-6.9l19.9-60.3c0.3-1,0.9-1.9,1.7-2.7l139.6-139.2
	c13.8-13.6,36-13.5,49.6,0.2c13.6,13.7,13.6,35.7,0,49.4L216.9,344.8c-0.8,0.8-1.7,1.3-2.7,1.7l-59.8,20.3
	C153.7,366.8,153,366.8,152.2,366.7L152.2,366.7z M178.2,303.7l-15,45.1l45.1-15l138.4-138.4c8.3-8.3,8.3-21.8,0-30.1
	c-8.4-8-21.7-8-30.1,0L178.2,303.7z"/>
<path class="st0" d="M167.2,304.8l9.8-9.8l39.9,39.9l-9.8,9.8L167.2,304.8z"/>
<path class="st0" d="M286.8,185.3l9.8-9.8l39.9,39.9l-9.8,9.8L286.8,185.3z"/>
<path class="st0" d="M187.2,315l119.6-119.6l9.8,9.8L197,324.8L187.2,315z"/>
</svg>
