<?xml version="1.0" encoding="utf-8"?>
<!-- Generator: Adobe Illustrator 25.2.3, SVG Export Plug-In . SVG Version: 6.00 Build 0)  -->
<svg version="1.1" id="Capa_1" xmlns="http://www.w3.org/2000/svg" xmlns:xlink="http://www.w3.org/1999/xlink" x="0px" y="0px"
	 viewBox="0 0 512 512" style="enable-background:new 0 0 512 512;" xml:space="preserve">
<style type="text/css">
	.st0{fill:#035D03;}
</style>
<g>
	<path class="st0" d="M434.7,158.1h-13.3c0.3-3.1,0.5-6.2,0.5-9.3c0-47.3-38.5-85.8-85.8-85.8c-14.8,0-28.9,3.7-41.5,10.7
		C276.9,29.9,233.9,0,185.1,0C120,0,66.9,53,66.9,118.2v40.6c-37.6,5.1-66.7,37.4-66.7,76.4c0,42.5,34.6,77.1,77.1,77.1h24.1V497
		c0,8.3,6.7,15,15,15h279.3c8.3,0,15-6.7,15-15V312.2h24.1c42.5,0,77.1-34.6,77.1-77.1C511.8,192.7,477.2,158.1,434.7,158.1
		L434.7,158.1z M172.6,265.2c2.9,4.5,4.5,9.7,4.5,15.2c0,15.6-12.9,28.3-28.7,28.3c-6.3,0-12.2-2-17.1-5.6v-37.9H172.6z
		 M131.4,336.1c5.5,1.7,11.2,2.6,17.1,2.6c32.3,0,58.7-26.1,58.7-58.3c0-5.2-0.7-10.3-2-15.2h175.6V405l-30.4-52.6
		c-2.7-4.6-7.6-7.5-13-7.5s-10.3,2.9-13,7.5L295.7,402L267,352.4c-2.7-4.6-7.6-7.5-13-7.5s-10.3,2.9-13,7.5L166.2,482h-34.9
		L131.4,336.1z M307.2,482H200.9l53.2-92.1L307.2,482z M341.9,482L313,432l24.3-42.1l43.4,75.1v17L341.9,482z M434.7,282.2h-24.1
		v-32.1c0-8.3-6.7-15-15-15H116.4c-8.3,0-15,6.7-15,15v32.1H77.3c-26,0-47.1-21.1-47.1-47.1s21.1-47.1,47.1-47.1h4.7
		c8.3,0,15-6.7,15-15v-54.9c0-48.6,39.6-88.2,88.2-88.2c42.2,0,78.6,30,86.6,71.3c1.1,5.4,5,9.8,10.3,11.5c5.3,1.6,11,0.2,15-3.7
		C307.5,98.7,321.4,93,336.2,93c30.7,0,55.8,25,55.8,55.8c0,6.6-1.1,13-3.4,19.2c-1.7,4.6-1,9.7,1.8,13.8c2.8,4,7.4,6.4,12.3,6.4
		h32.1c26,0,47.1,21.1,47.1,47.1C481.8,261.1,460.7,282.2,434.7,282.2L434.7,282.2z"/>
</g>
</svg>
