<svg id="svg" version="1.1" xmlns="http://www.w3.org/2000/svg" xmlns:xlink="http://www.w3.org/1999/xlink" width="400" height="400" viewBox="0, 0, 400,400"><g id="svgg"><path id="path0" d="M190.020 100.093 C 189.636 107.674,188.116 114.101,185.896 117.536 C 184.433 119.800,183.701 120.173,179.245 120.926 C 175.475 121.562,167.949 123.487,165.347 124.480 C 160.758 126.231,155.781 122.524,147.843 111.444 L 145.491 108.161 144.713 108.630 C 144.286 108.888,141.207 110.685,137.871 112.624 C 134.536 114.562,131.464 116.355,131.045 116.608 L 130.284 117.066 132.293 121.095 C 136.855 130.247,138.048 137.085,135.687 140.559 C 135.323 141.095,133.612 142.771,131.885 144.283 C 130.159 145.795,127.374 148.507,125.697 150.309 C 120.336 156.071,120.051 156.327,118.573 156.681 C 114.767 157.594,106.305 155.277,97.768 150.985 L 96.402 150.298 91.539 158.121 L 86.677 165.944 88.574 167.085 C 97.133 172.232,103.960 179.350,103.960 183.126 C 103.960 183.506,103.613 184.756,103.188 185.906 C 100.792 192.386,98.756 200.917,98.141 207.054 C 97.843 210.021,97.063 211.218,94.414 212.770 C 91.262 214.618,82.681 216.786,74.938 217.691 L 73.515 217.857 73.515 226.717 L 73.515 235.576 76.423 235.749 C 89.078 236.501,98.341 239.903,99.474 244.216 C 99.613 244.742,100.073 246.566,100.498 248.267 C 100.922 249.969,101.888 253.193,102.644 255.432 C 104.186 259.999,104.228 260.655,103.150 263.323 C 101.560 267.260,96.471 273.048,89.447 278.908 L 87.681 280.381 92.382 287.653 L 97.083 294.926 100.336 293.301 C 112.743 287.105,119.403 285.873,122.469 289.206 C 124.308 291.205,131.628 298.477,133.584 300.248 C 135.709 302.171,136.013 302.954,135.990 306.436 C 135.965 310.357,134.402 316.981,131.937 323.622 C 131.385 325.111,131.018 326.414,131.122 326.517 C 131.227 326.621,133.818 328.059,136.881 329.713 C 139.944 331.368,143.247 333.158,144.221 333.692 L 145.992 334.662 147.420 332.616 C 155.412 321.159,161.273 317.016,166.832 318.896 C 169.618 319.838,174.983 321.206,178.465 321.861 C 183.231 322.759,184.215 323.564,185.936 327.970 C 187.243 331.319,188.859 340.305,188.861 344.245 C 188.861 344.487,190.926 344.554,198.361 344.554 L 207.860 344.554 207.875 340.285 C 207.908 330.457,209.542 324.479,212.624 322.908 C 212.964 322.734,214.356 322.399,215.718 322.163 C 221.143 321.222,227.609 319.489,232.979 317.536 C 237.171 316.011,238.501 315.967,241.113 317.269 C 244.809 319.110,250.268 324.297,255.446 330.889 L 256.064 331.677 263.644 326.774 L 271.224 321.870 270.252 320.279 C 264.499 310.870,263.038 302.918,266.086 297.604 C 266.734 296.475,271.536 291.105,275.146 287.473 C 278.945 283.650,287.646 284.361,298.174 289.354 L 301.174 290.777 305.591 282.848 C 309.156 276.448,309.937 274.877,309.645 274.703 C 309.445 274.585,308.417 274.000,307.361 273.405 C 296.718 267.407,292.025 260.116,294.197 252.952 C 295.150 249.807,296.775 243.045,296.780 242.203 C 296.802 238.132,305.275 235.644,319.117 235.644 L 322.277 235.644 322.277 226.523 L 322.277 217.402 319.740 217.239 C 311.396 216.705,303.972 214.408,300.587 211.314 C 298.791 209.672,298.122 208.180,297.514 204.451 C 296.824 200.219,295.711 195.259,294.654 191.708 C 294.168 190.074,293.659 188.264,293.523 187.685 C 292.512 183.376,298.263 176.148,307.735 169.820 C 308.790 169.116,309.653 168.490,309.653 168.430 C 309.653 168.300,301.536 153.781,301.120 153.166 C 300.862 152.784,300.589 152.906,298.378 154.384 C 287.261 161.819,280.254 161.562,273.239 153.465 C 270.865 150.724,266.755 146.610,264.109 144.323 C 261.334 141.925,261.004 141.309,261.054 138.614 C 261.122 135.018,263.250 128.047,266.344 121.287 C 266.999 119.858,267.460 118.614,267.369 118.524 C 267.060 118.218,252.711 110.326,252.640 110.423 C 245.573 120.249,240.778 124.864,236.687 125.780 C 235.364 126.076,235.271 126.058,231.593 124.807 C 227.400 123.381,221.529 121.817,217.494 121.051 C 214.392 120.462,214.202 120.379,213.116 119.142 C 210.847 116.557,209.084 109.223,208.703 100.787 L 208.540 97.153 199.358 97.089 L 190.176 97.024 190.020 100.093 M208.663 144.523 C 239.340 149.119,265.473 174.134,271.660 204.823 C 278.179 237.160,265.314 268.154,237.752 286.510 C 217.722 299.851,191.790 302.293,168.069 293.074 C 156.221 288.468,143.387 278.093,134.529 265.957 C 115.822 240.330,115.674 202.702,134.177 176.733 C 147.633 157.847,166.985 146.285,188.861 144.061 C 192.679 143.673,204.892 143.958,208.663 144.523 " stroke="none" fill="#7b23ab" fill-rule="evenodd"></path><path id="path1" d="M179.827 32.095 C 160.502 42.027,146.300 62.879,144.288 84.273 C 143.924 88.154,144.130 98.094,144.662 102.228 C 144.863 103.793,145.033 105.151,145.039 105.244 C 145.045 105.338,145.795 105.207,146.706 104.955 L 148.363 104.495 149.615 105.629 C 151.337 107.188,154.197 109.026,155.880 109.656 L 157.283 110.181 160.881 106.417 C 162.861 104.348,164.558 102.522,164.654 102.361 C 164.749 102.200,164.340 101.129,163.745 99.982 C 156.292 85.612,155.662 69.806,161.941 54.713 C 164.601 48.317,172.143 38.821,178.841 33.436 C 181.781 31.071,181.759 31.102,179.827 32.095 M223.886 32.097 C 224.022 32.234,224.858 32.890,225.743 33.555 C 233.185 39.148,238.369 47.380,240.855 57.550 C 244.747 73.475,243.665 85.102,237.005 98.933 L 235.195 102.693 239.284 107.225 C 241.532 109.718,243.472 111.795,243.594 111.841 C 244.615 112.224,248.829 108.625,251.417 105.160 C 252.316 103.956,253.173 102.972,253.321 102.974 C 253.468 102.976,254.473 103.252,255.554 103.588 C 256.634 103.924,257.581 104.135,257.658 104.059 C 258.045 103.671,257.789 84.224,257.356 81.188 C 254.634 62.096,244.245 45.283,228.844 35.043 C 226.125 33.235,223.415 31.625,223.886 32.097 M326.900 231.350 C 326.808 231.443,326.733 232.222,326.733 233.083 L 326.733 234.648 324.443 235.795 C 321.735 237.152,316.615 240.473,316.411 241.006 C 316.274 241.361,318.221 250.685,318.538 251.192 C 318.620 251.325,320.693 251.561,323.144 251.717 C 340.058 252.793,350.034 257.222,361.641 268.811 C 367.204 274.365,370.517 279.603,373.414 287.426 L 374.266 289.728 374.115 288.119 C 372.226 267.989,360.276 249.306,342.327 238.420 C 337.348 235.401,327.406 230.845,326.900 231.350 M67.079 236.175 C 54.336 241.204,45.714 247.842,37.227 259.158 C 29.316 269.707,23.944 284.900,24.030 296.481 L 24.049 299.134 24.379 297.649 C 25.853 291.009,30.933 280.641,35.718 274.505 C 45.043 262.548,58.572 255.608,73.694 255.022 L 77.463 254.876 78.726 251.634 C 79.421 249.850,80.393 247.341,80.886 246.058 L 81.782 243.726 80.336 242.433 C 78.121 240.452,75.110 238.995,70.111 237.485 C 69.941 237.434,69.802 237.119,69.802 236.785 C 69.802 235.206,69.631 235.168,67.079 236.175 M279.259 311.508 C 276.088 312.360,273.415 313.136,273.318 313.232 C 272.994 313.555,272.961 318.913,273.265 321.689 C 273.532 324.120,273.521 324.513,273.175 325.042 C 272.141 326.618,284.829 336.650,292.203 340.087 C 302.185 344.739,314.601 345.987,329.208 343.805 C 339.934 342.202,352.974 336.674,359.282 331.055 L 360.272 330.173 359.021 330.893 C 354.870 333.282,347.849 335.720,340.594 337.292 C 332.641 339.015,317.355 336.662,308.329 332.325 C 300.549 328.587,292.556 320.925,287.063 311.943 C 286.293 310.684,285.663 309.912,285.420 309.929 C 285.202 309.945,282.430 310.655,279.259 311.508 M112.524 316.184 C 102.873 330.799,92.716 336.710,73.523 338.881 C 63.205 340.047,51.168 337.121,41.460 331.086 C 39.141 329.643,39.373 329.915,42.698 332.530 C 48.696 337.247,54.071 339.941,63.986 343.199 C 84.567 349.962,106.893 345.445,126.779 330.494 C 128.917 328.886,128.942 328.856,128.460 328.407 C 128.121 328.091,127.970 327.628,127.970 326.901 C 127.970 323.949,126.801 317.022,126.019 315.347 L 125.615 314.480 120.667 313.938 C 117.945 313.640,115.418 313.389,115.051 313.381 C 114.470 313.368,114.146 313.728,112.524 316.184 " stroke="none" fill="#530c0c" fill-rule="evenodd"></path><path id="path2" d="M218.317 14.696 C 218.317 14.917,219.722 15.488,222.339 16.329 C 246.846 24.206,262.564 37.152,273.137 58.168 C 278.952 69.728,281.511 80.316,281.842 94.183 C 282.270 112.112,279.414 122.932,269.901 139.426 L 268.759 141.406 275.933 148.580 L 283.107 155.755 284.784 155.463 C 289.800 154.589,296.639 151.343,300.545 147.983 L 301.956 146.769 303.213 148.632 C 305.009 151.292,305.227 151.205,305.905 147.553 C 309.591 127.704,309.568 110.222,305.837 95.173 C 301.848 79.079,289.120 57.027,276.012 43.498 C 263.922 31.020,237.893 17.073,222.331 14.736 C 219.174 14.262,218.317 14.253,218.317 14.696 M168.302 16.707 C 145.667 23.539,123.184 39.888,110.774 58.540 C 94.097 83.603,88.113 109.387,91.473 141.708 C 92.092 147.670,91.918 147.471,94.921 145.647 L 96.790 144.512 98.209 145.737 C 102.603 149.527,109.507 152.818,114.232 153.373 L 115.525 153.525 121.933 145.923 C 125.458 141.741,128.423 138.176,128.523 138.001 C 128.631 137.812,127.013 134.184,124.524 129.035 C 118.076 115.698,117.422 113.209,117.155 100.990 C 116.689 79.619,121.061 63.644,131.883 47.180 C 139.831 35.087,152.808 25.154,170.730 17.443 C 175.523 15.381,174.112 14.953,168.302 16.707 M216.840 28.651 C 216.846 28.942,217.475 29.390,218.758 30.016 C 227.075 34.075,235.685 44.044,238.580 52.970 C 244.184 70.245,243.300 84.671,235.727 99.567 L 234.122 102.722 234.821 103.552 C 237.645 106.903,243.256 112.871,243.582 112.871 C 245.503 112.871,251.238 107.754,253.155 104.328 C 253.335 104.008,253.641 104.041,255.456 104.573 C 258.289 105.405,258.320 105.400,258.511 104.146 C 259.193 99.655,258.918 85.654,258.025 79.455 C 255.793 63.953,246.426 47.714,233.906 37.641 C 227.335 32.354,216.804 26.807,216.840 28.651 M183.647 29.302 C 172.846 33.829,161.288 43.438,154.581 53.465 C 144.688 68.257,141.566 82.742,143.848 103.271 C 144.234 106.747,144.127 106.629,146.354 106.034 L 148.193 105.543 149.605 106.858 C 151.259 108.397,154.059 110.097,156.062 110.778 L 157.478 111.259 160.798 107.795 C 162.624 105.890,164.524 103.852,165.020 103.266 L 165.923 102.201 164.417 99.177 C 156.813 83.906,156.615 67.447,163.861 52.947 C 167.540 45.585,176.691 35.524,184.158 30.632 C 186.796 28.904,186.491 28.110,183.647 29.302 M181.931 31.044 C 181.931 31.101,180.956 31.905,179.765 32.831 C 177.225 34.806,173.168 38.809,170.517 41.955 C 162.706 51.229,160.227 56.872,158.122 70.173 C 156.749 78.853,158.704 89.390,163.480 99.046 L 165.029 102.177 161.216 106.225 C 158.706 108.890,157.260 110.246,156.982 110.194 C 155.433 109.908,152.093 107.931,149.706 105.887 L 148.299 104.681 146.824 105.063 C 146.013 105.274,145.242 105.446,145.112 105.446 C 144.643 105.446,143.821 96.256,143.817 90.965 C 143.797 68.828,155.217 47.881,174.189 35.257 C 176.558 33.680,181.931 30.757,181.931 31.044 M224.826 32.346 C 241.514 41.860,253.888 59.486,257.033 78.223 C 258.122 84.712,258.567 100.123,257.771 103.743 L 257.628 104.391 255.414 103.703 L 253.200 103.015 252.173 104.416 C 249.605 107.916,246.447 110.931,244.494 111.747 L 243.592 112.124 239.942 108.104 C 237.934 105.893,236.015 103.780,235.678 103.408 L 235.065 102.732 236.815 99.076 C 243.665 84.769,244.675 72.993,240.464 56.525 C 237.971 46.775,232.607 38.736,224.752 32.979 C 221.710 30.750,221.730 30.581,224.826 32.346 M189.355 96.597 C 189.336 102.673,187.647 112.070,185.954 115.527 C 184.391 118.721,183.527 119.270,178.837 120.055 C 175.081 120.683,170.346 121.856,166.353 123.148 C 162.766 124.309,161.817 124.263,159.601 122.819 C 156.484 120.788,151.503 115.235,147.293 109.097 C 146.570 108.041,145.851 107.178,145.697 107.178 C 145.414 107.178,129.769 116.189,129.358 116.589 C 129.229 116.715,130.028 118.593,131.273 121.088 C 134.500 127.558,136.078 132.890,135.830 136.486 C 135.631 139.371,135.263 139.955,131.475 143.405 C 128.037 146.534,125.115 149.470,121.752 153.171 C 119.669 155.464,118.823 155.912,116.550 155.930 C 112.671 155.960,104.447 153.354,97.678 149.949 C 95.867 149.039,96.629 148.183,90.611 157.884 C 84.911 167.071,85.223 166.239,87.094 167.267 C 93.257 170.655,100.318 176.976,102.191 180.780 C 103.184 182.797,103.172 183.176,102.006 186.355 C 100.070 191.632,98.634 197.463,97.639 204.084 C 96.810 209.599,96.902 209.272,95.870 210.414 C 93.661 212.859,86.442 215.153,76.856 216.455 C 75.223 216.677,73.638 216.910,73.335 216.972 L 72.784 217.086 72.716 226.674 C 72.673 232.859,72.736 236.327,72.896 236.444 C 73.032 236.544,73.979 236.630,75.000 236.634 C 80.569 236.658,89.631 238.354,93.451 240.086 C 97.404 241.878,98.236 242.956,99.406 247.804 C 99.868 249.718,100.859 253.105,101.608 255.330 C 102.357 257.556,102.970 259.755,102.970 260.219 C 102.970 264.124,96.989 271.742,89.017 277.987 C 87.725 278.999,86.661 279.971,86.651 280.147 C 86.614 280.823,96.470 295.665,97.011 295.748 C 97.298 295.792,98.459 295.323,99.591 294.706 C 106.218 291.093,114.085 288.366,117.878 288.366 C 120.394 288.366,120.084 288.156,125.062 293.237 C 127.410 295.635,130.390 298.539,131.683 299.692 C 134.410 302.122,134.932 302.971,135.094 305.238 C 135.364 309.006,133.428 317.189,130.514 324.598 C 129.817 326.372,129.715 326.836,129.986 327.010 C 131.089 327.717,146.015 335.644,146.243 335.644 C 146.395 335.644,146.927 335.003,147.425 334.220 C 151.534 327.767,158.058 321.138,161.642 319.776 C 163.387 319.113,164.519 319.186,167.663 320.166 C 170.851 321.160,175.665 322.331,178.757 322.865 C 182.107 323.444,183.320 324.370,184.692 327.397 C 186.198 330.718,187.862 339.414,187.869 343.998 L 187.871 345.297 198.329 345.297 L 208.787 345.297 208.805 340.285 C 208.832 332.861,209.679 328.027,211.409 325.414 C 212.408 323.906,213.151 323.542,216.331 322.999 C 221.752 322.074,230.255 319.712,235.143 317.774 C 239.685 315.972,246.190 320.384,253.916 330.507 C 254.825 331.698,255.704 332.673,255.869 332.673 C 256.034 332.673,259.792 330.334,264.221 327.475 C 268.650 324.616,272.318 322.277,272.372 322.277 C 272.757 322.277,272.622 324.237,272.185 324.976 L 271.684 325.826 274.407 328.445 C 284.673 338.321,295.786 344.096,306.847 345.302 C 311.195 345.777,324.698 345.487,328.881 344.829 C 342.862 342.631,354.533 337.180,363.581 328.622 C 366.682 325.689,367.032 323.662,363.985 326.281 C 355.312 333.737,338.695 338.310,326.793 336.518 C 308.663 333.788,298.548 327.477,288.693 312.748 C 287.873 311.522,287.016 310.158,286.788 309.715 C 286.253 308.678,286.570 308.641,279.119 310.602 C 271.485 312.611,272.153 311.972,272.153 317.265 C 272.153 319.477,272.123 321.287,272.087 321.287 C 271.511 321.287,267.815 314.035,266.725 310.767 C 264.222 303.265,265.028 299.440,270.264 293.965 C 271.848 292.309,273.923 290.111,274.876 289.080 C 279.108 284.501,286.927 285.008,298.694 290.624 C 300.085 291.288,301.315 291.832,301.426 291.832 C 301.636 291.832,311.142 274.942,311.134 274.584 C 311.132 274.472,310.157 273.864,308.968 273.231 C 304.883 271.058,299.920 267.143,297.669 264.318 C 294.351 260.154,293.851 257.051,295.582 251.361 C 296.078 249.728,296.775 247.054,297.129 245.421 C 297.484 243.787,297.888 242.036,298.028 241.529 C 298.838 238.601,306.782 236.637,317.822 236.635 L 320.916 236.635 319.183 237.771 C 316.608 239.461,315.347 240.562,315.347 241.122 C 315.347 241.545,317.374 250.866,317.713 252.004 C 317.811 252.333,318.458 252.426,321.618 252.562 C 333.426 253.071,343.161 255.762,350.170 260.453 C 364.868 270.291,373.783 283.932,374.438 297.587 C 374.538 299.669,374.665 300.495,374.886 300.495 C 376.327 300.495,375.463 287.419,373.481 279.242 C 368.169 257.316,353.356 240.913,330.322 231.452 C 326.031 229.690,325.991 229.691,325.987 231.614 C 325.982 233.771,325.821 234.111,324.481 234.789 C 323.823 235.123,323.213 235.396,323.126 235.396 C 323.039 235.396,323.050 231.276,323.150 226.241 C 323.364 215.527,323.564 216.337,320.700 216.335 C 315.856 216.332,308.233 214.646,304.444 212.741 C 300.204 210.608,299.299 209.223,298.271 203.291 C 297.364 198.058,297.059 196.725,295.498 191.154 L 294.232 186.639 294.664 185.042 C 295.726 181.121,301.380 175.119,308.409 170.452 C 309.562 169.686,310.592 169.059,310.698 169.059 C 311.094 169.059,310.787 168.462,306.178 160.254 C 300.823 150.718,301.200 151.273,300.445 151.825 C 288.915 160.263,281.363 160.916,275.092 154.016 C 272.199 150.834,266.650 145.284,264.180 143.104 C 263.002 142.065,262.299 141.232,262.107 140.652 C 261.270 138.115,263.111 131.213,267.128 121.834 C 268.021 119.748,268.550 118.208,268.418 118.082 C 267.890 117.581,252.918 109.406,252.530 109.408 C 252.280 109.409,251.695 110.045,251.114 110.948 C 247.493 116.571,241.910 122.338,238.329 124.153 C 236.279 125.191,235.645 125.166,231.931 123.897 C 227.809 122.490,223.045 121.214,218.497 120.301 C 214.543 119.506,214.105 119.262,212.976 117.223 C 211.153 113.931,209.959 107.787,209.522 99.443 L 209.356 96.287 199.356 96.287 C 191.522 96.287,189.356 96.354,189.355 96.597 M208.667 97.463 C 208.724 104.226,210.220 113.189,211.898 116.830 C 213.241 119.745,213.845 120.147,218.199 121.024 C 222.738 121.940,228.307 123.449,231.988 124.762 C 235.105 125.874,235.843 125.938,237.762 125.263 C 241.172 124.065,247.296 118.046,251.427 111.835 C 252.043 110.907,252.585 110.149,252.630 110.149 C 252.712 110.149,264.820 116.853,266.768 117.977 L 267.819 118.584 267.050 120.108 C 265.038 124.094,262.053 132.624,261.402 136.246 C 260.678 140.279,261.121 141.498,264.356 144.374 C 267.097 146.810,271.965 151.741,274.442 154.588 C 280.411 161.452,287.920 161.251,298.802 153.934 L 300.953 152.487 305.146 159.969 C 307.452 164.084,309.466 167.695,309.621 167.994 C 309.885 168.501,309.735 168.653,307.365 170.268 C 300.453 174.980,295.390 180.284,294.020 184.250 C 293.389 186.073,293.456 187.087,294.421 190.321 C 295.724 194.688,296.723 198.945,297.528 203.562 C 298.378 208.437,298.783 209.409,300.711 211.193 C 304.081 214.313,313.296 217.056,320.468 217.075 C 322.770 217.081,322.607 216.267,322.398 226.717 L 322.216 235.818 316.244 235.965 C 304.173 236.261,297.030 238.425,297.030 241.785 C 297.030 242.687,295.863 247.733,294.872 251.114 C 293.233 256.705,293.259 258.191,295.053 261.819 C 296.876 265.503,302.110 270.300,307.787 273.489 C 309.095 274.224,310.134 274.916,310.095 275.026 C 309.846 275.734,301.324 290.832,301.171 290.836 C 301.066 290.839,299.822 290.283,298.406 289.600 C 287.851 284.509,278.923 283.839,275.000 287.845 C 267.031 295.982,265.436 298.137,264.837 301.587 C 264.046 306.137,265.926 312.743,269.892 319.346 L 271.445 321.932 263.958 326.746 C 255.396 332.251,256.087 332.002,254.613 330.104 C 249.954 324.105,244.504 319.062,240.810 317.333 C 238.166 316.096,237.276 316.109,233.714 317.431 C 228.083 319.522,221.026 321.434,215.363 322.403 C 212.146 322.954,211.250 323.608,210.018 326.304 C 208.706 329.176,207.695 337.149,207.994 342.265 L 208.129 344.554 198.421 344.554 L 188.713 344.554 188.410 341.196 C 187.671 333.015,185.909 326.730,183.627 324.130 C 182.577 322.934,181.962 322.661,179.208 322.168 C 175.799 321.557,171.078 320.411,167.911 319.424 C 163.716 318.116,161.723 318.354,158.541 320.543 C 155.645 322.536,150.792 327.926,147.470 332.839 L 146.102 334.861 138.459 330.760 C 134.256 328.505,130.778 326.628,130.730 326.589 C 130.683 326.550,131.105 325.323,131.670 323.862 C 134.248 317.187,136.042 309.244,135.830 305.441 C 135.668 302.530,135.232 301.791,132.003 298.941 C 129.474 296.709,125.403 292.644,122.620 289.573 C 119.401 286.020,113.006 287.151,100.321 293.516 C 98.524 294.418,97.013 295.104,96.963 295.041 C 96.589 294.567,87.843 280.907,87.738 280.634 C 87.651 280.407,88.634 279.405,90.529 277.789 C 98.422 271.054,103.275 264.741,103.639 260.736 C 103.759 259.411,103.632 258.843,102.400 255.187 C 101.645 252.947,100.618 249.443,100.117 247.401 C 98.916 242.505,98.292 241.613,94.856 239.879 C 90.785 237.824,81.317 235.892,75.309 235.891 L 73.515 235.891 73.515 226.762 L 73.515 217.632 75.186 217.458 C 84.405 216.498,93.397 213.844,96.292 211.229 C 97.450 210.182,97.590 209.741,98.280 204.950 C 99.239 198.285,100.883 191.643,102.952 186.064 C 103.805 183.766,103.891 183.340,103.686 182.429 C 102.743 178.234,97.515 172.921,89.109 167.616 C 87.816 166.800,86.769 165.979,86.783 165.790 C 86.810 165.436,95.606 151.112,96.143 150.548 C 96.389 150.290,96.867 150.424,98.656 151.252 C 106.256 154.770,111.313 156.376,115.528 156.612 C 119.347 156.826,119.553 156.713,123.868 152.021 C 127.291 148.299,129.984 145.688,133.447 142.731 C 138.125 138.737,137.739 132.360,132.134 121.094 C 131.032 118.878,130.190 117.004,130.265 116.930 C 130.339 116.856,133.808 114.807,137.974 112.377 L 145.548 107.958 146.122 108.744 C 146.437 109.176,147.511 110.686,148.507 112.100 C 153.335 118.954,158.432 123.821,161.754 124.751 C 162.859 125.061,163.045 125.029,166.539 123.930 C 171.430 122.391,175.220 121.445,179.084 120.800 C 182.957 120.154,183.934 119.771,185.062 118.455 C 187.343 115.794,189.287 108.882,189.730 101.856 C 189.807 100.631,189.930 99.044,190.002 98.329 L 190.135 97.030 199.399 97.030 C 208.056 97.030,208.664 97.058,208.667 97.463 M189.109 144.213 C 166.670 146.825,149.195 156.962,135.396 175.370 C 115.458 201.970,115.565 240.323,135.653 267.203 C 153.575 291.186,181.388 302.275,210.767 297.153 C 240.637 291.945,265.721 267.036,271.634 236.711 C 280.138 193.099,251.485 151.363,208.416 144.628 C 206.167 144.276,191.309 143.957,189.109 144.213 M208.416 145.401 C 238.197 149.957,263.592 173.578,270.311 202.970 C 273.248 215.823,272.870 230.901,269.300 243.258 C 262.782 265.812,243.707 285.951,221.658 293.554 C 176.068 309.275,127.611 278.685,121.886 230.569 C 116.802 187.835,146.928 149.398,188.985 144.963 C 191.543 144.693,205.906 145.017,208.416 145.401 M151.216 166.556 C 138.144 177.503,128.528 194.182,127.670 207.399 L 127.599 208.485 130.727 210.393 C 143.066 217.918,154.203 227.810,159.520 235.967 C 161.272 238.655,160.322 238.889,168.889 233.663 L 175.990 229.332 175.804 227.351 C 174.364 211.985,180.212 201.429,192.946 196.412 L 194.926 195.632 194.926 186.867 L 194.926 178.102 191.213 177.794 C 177.255 176.638,163.683 172.057,155.449 165.720 C 153.631 164.322,153.961 164.257,151.216 166.556 M78.218 166.314 C 44.973 179.727,23.587 200.648,11.144 231.931 C 5.910 245.088,2.829 268.863,4.664 281.931 C 6.163 292.606,10.262 309.158,11.407 309.158 C 11.978 309.158,11.983 309.076,11.510 307.527 C 6.207 290.153,8.637 260.994,16.705 245.173 C 29.806 219.485,54.809 203.515,88.614 199.242 C 90.860 198.958,92.772 198.651,92.861 198.559 C 93.401 198.005,99.014 179.678,98.778 179.238 C 98.036 177.851,91.395 173.262,85.644 170.162 C 83.670 169.098,82.020 168.204,81.978 168.175 C 81.936 168.146,82.083 167.499,82.304 166.738 C 82.980 164.412,82.942 164.408,78.218 166.314 M312.979 166.659 C 312.911 166.837,313.142 167.630,313.493 168.423 C 313.843 169.215,314.097 169.891,314.058 169.925 C 314.018 169.959,312.722 170.837,311.179 171.876 C 307.433 174.397,303.222 177.805,299.754 181.121 L 296.909 183.842 297.222 185.052 C 298.039 188.212,301.129 197.133,302.055 199.010 L 303.094 201.114 305.817 201.289 C 307.314 201.386,310.266 201.581,312.376 201.724 C 340.238 203.605,362.765 216.176,377.351 237.983 C 389.071 255.507,393.751 282.271,389.122 305.307 C 388.652 307.647,388.664 307.921,389.239 307.921 C 390.207 307.921,392.927 295.437,393.931 286.386 C 397.140 257.474,391.921 234.064,377.295 211.772 C 362.926 189.870,346.086 176.610,322.905 168.943 C 316.989 166.987,313.189 166.112,312.979 166.659 M239.356 168.212 C 229.628 174.387,217.191 178.198,206.719 178.213 C 203.807 178.217,203.430 178.265,203.563 178.609 C 203.645 178.825,203.713 182.759,203.713 187.351 L 203.713 195.702 205.136 196.145 C 218.672 200.365,226.085 212.684,223.593 226.818 C 223.267 228.670,223.260 229.055,223.547 229.319 C 224.136 229.862,238.510 237.871,238.895 237.871 C 239.097 237.871,240.159 236.730,241.254 235.334 C 248.848 225.659,258.228 216.971,265.283 213.075 C 267.536 211.832,267.410 212.173,266.832 208.874 C 263.989 192.662,255.960 178.032,244.821 168.771 C 242.064 166.478,242.085 166.481,239.356 168.212 M195.916 200.657 C 181.314 203.772,175.069 222.044,184.657 233.597 C 196.860 248.300,220.655 239.968,220.873 220.916 C 221.025 207.534,209.092 197.847,195.916 200.657 M204.094 209.048 C 209.084 210.347,212.871 215.358,212.871 220.661 C 212.871 231.163,200.598 236.703,192.791 229.725 C 183.290 221.234,191.715 205.824,204.094 209.048 M199.505 216.248 C 197.449 217.073,196.229 218.446,195.918 220.282 C 195.011 225.650,202.508 228.248,205.181 223.492 C 207.205 219.891,203.191 214.769,199.505 216.248 M328.842 231.695 C 355.106 241.727,372.648 263.897,374.392 289.263 L 374.527 291.213 373.524 288.243 C 369.862 277.393,364.022 269.827,352.723 261.291 C 345.190 255.601,334.844 252.401,322.135 251.829 L 318.405 251.662 317.213 246.340 L 316.021 241.019 316.612 240.542 C 318.116 239.328,321.881 236.965,324.037 235.880 C 326.638 234.572,326.722 234.446,326.730 231.869 C 326.731 231.358,326.763 230.941,326.800 230.941 C 326.837 230.941,327.756 231.280,328.842 231.695 M66.708 235.288 C 52.336 241.128,42.683 249.054,34.044 262.111 C 25.498 275.026,20.611 295.887,24.026 304.870 C 24.571 306.304,25.072 305.535,24.899 303.527 C 24.326 296.843,29.616 283.790,36.461 275.000 C 45.579 263.291,57.972 256.968,73.921 255.890 L 78.208 255.600 79.608 251.995 C 80.378 250.013,81.382 247.451,81.840 246.301 C 82.916 243.600,82.920 243.627,81.250 242.038 C 79.067 239.962,74.710 237.635,71.847 237.016 C 70.897 236.811,70.729 236.584,70.553 235.272 C 70.375 233.939,70.027 233.940,66.708 235.288 M69.909 236.237 L 70.072 237.325 72.223 237.995 C 75.890 239.139,80.246 241.639,81.388 243.256 L 81.869 243.936 79.748 249.402 L 77.627 254.869 73.484 255.157 C 53.332 256.558,38.399 266.712,29.195 285.272 C 26.574 290.556,24.270 297.287,24.250 299.718 C 24.243 300.501,24.206 300.557,23.967 300.144 C 23.563 299.448,23.880 292.833,24.490 289.233 C 28.638 264.749,43.618 245.779,66.213 236.396 C 69.828 234.895,69.708 234.900,69.909 236.237 M173.152 241.572 C 164.515 246.551,165.034 246.096,166.170 247.690 C 169.698 252.643,173.131 265.436,175.360 281.931 C 175.719 284.585,176.066 287.108,176.131 287.535 C 176.248 288.298,176.306 288.329,179.029 289.074 C 190.197 292.131,201.187 292.638,211.634 290.580 C 215.154 289.886,220.586 287.940,223.886 286.191 L 225.619 285.272 225.790 282.178 C 226.476 269.788,229.679 256.127,233.807 247.980 C 234.627 246.363,235.130 246.778,226.384 241.848 C 217.919 237.077,218.584 237.316,217.231 238.559 C 210.907 244.372,202.313 246.758,194.759 244.797 C 190.867 243.786,184.464 240.206,182.197 237.773 C 181.323 236.835,181.484 236.768,173.152 241.572 M287.111 311.752 C 296.480 327.029,307.972 334.463,326.545 337.261 C 336.633 338.780,352.167 335.408,360.383 329.916 C 361.724 329.019,361.045 329.793,359.087 331.393 C 353.225 336.183,342.469 341.218,334.134 343.075 C 327.268 344.604,313.705 345.345,306.944 344.559 C 296.054 343.293,285.075 337.613,275.000 328.030 L 272.649 325.793 273.094 324.951 C 273.469 324.243,273.498 323.934,273.276 323.007 C 272.862 321.274,272.666 315.138,272.988 313.963 L 273.265 312.952 279.392 311.322 C 282.762 310.426,285.588 309.684,285.672 309.673 C 285.756 309.662,286.403 310.598,287.111 311.752 M112.934 313.893 C 103.726 328.925,93.848 335.159,75.143 337.745 C 62.255 339.526,47.254 335.240,37.390 326.958 C 33.452 323.652,34.486 326.443,38.640 330.335 C 49.861 340.846,69.243 347.909,84.857 347.178 C 100.600 346.440,114.048 341.328,128.032 330.765 C 130.602 328.824,130.885 328.345,129.703 327.933 C 129.250 327.775,128.960 327.501,128.960 327.230 C 128.960 324.695,127.959 318.238,127.209 315.940 C 126.424 313.534,126.790 313.696,120.595 312.998 C 113.315 312.178,114.036 312.094,112.934 313.893 M120.233 313.726 C 123.125 314.056,125.595 314.389,125.722 314.467 C 126.440 314.911,127.536 319.963,128.008 325.004 C 128.271 327.809,128.381 328.307,128.762 328.406 C 129.483 328.595,129.334 328.760,126.633 330.770 C 107.660 344.882,85.942 349.784,66.832 344.267 C 55.480 340.991,47.384 336.815,39.606 330.226 C 38.518 329.305,38.728 328.998,39.869 329.841 C 47.155 335.229,58.589 338.861,68.263 338.861 C 88.668 338.861,103.374 331.069,113.012 315.149 C 113.683 314.039,114.400 313.131,114.604 313.129 C 114.808 313.128,117.341 313.397,120.233 313.726 M224.139 323.800 C 218.288 325.021,213.415 326.153,213.310 326.315 C 212.457 327.629,212.133 331.430,212.131 340.139 L 212.129 347.728 210.396 348.020 C 208.122 348.403,208.134 348.442,211.584 351.766 C 226.400 366.038,242.691 374.875,260.520 378.313 C 275.268 381.156,297.977 380.828,312.500 377.563 C 329.158 373.817,347.452 364.169,359.701 352.669 C 364.209 348.437,370.622 340.578,370.168 339.842 C 369.879 339.375,369.453 339.684,367.597 341.708 C 347.438 363.690,317.543 371.915,288.119 363.574 C 263.017 356.458,247.451 344.672,237.527 325.269 C 236.161 322.598,235.498 321.541,235.197 321.558 C 234.966 321.570,229.990 322.580,224.139 323.800 M161.046 326.592 C 148.453 345.082,134.435 356.057,117.091 361.001 C 100.501 365.731,85.671 366.590,73.724 363.512 C 56.677 359.120,44.299 352.201,30.958 339.607 C 27.921 336.740,27.476 337.491,30.244 340.811 C 41.225 353.983,53.885 363.294,71.630 371.248 C 86.554 377.938,103.618 379.519,127.847 376.458 C 152.849 373.299,173.694 364.492,187.797 351.129 C 190.022 349.021,190.009 348.906,187.498 348.451 C 185.518 348.092,185.462 348.004,185.420 345.173 C 185.327 338.835,183.946 330.528,182.457 327.343 L 181.759 325.850 172.872 324.308 C 167.984 323.461,163.909 322.768,163.816 322.770 C 163.723 322.771,162.477 324.491,161.046 326.592 " stroke="none" fill="#040404" fill-rule="evenodd"></path><path id="path3" d="M155.074 120.297 C 155.745 120.978,156.349 121.535,156.417 121.535 C 156.485 121.535,155.992 120.978,155.322 120.297 C 154.651 119.616,154.047 119.059,153.979 119.059 C 153.911 119.059,154.404 119.616,155.074 120.297 M95.536 273.205 L 94.183 274.629 95.606 273.276 C 96.389 272.532,97.030 271.891,97.030 271.853 C 97.030 271.669,96.793 271.883,95.536 273.205 M269.168 293.874 L 268.441 294.678 269.245 293.951 C 269.995 293.274,270.163 293.069,269.972 293.069 C 269.929 293.069,269.567 293.431,269.168 293.874 M154.568 323.824 L 153.589 324.876 154.641 323.898 C 155.619 322.988,155.807 322.772,155.620 322.772 C 155.579 322.772,155.106 323.246,154.568 323.824 " stroke="none" fill="#311045" fill-rule="evenodd"></path><path id="path4" d="M229.084 36.634 C 229.755 37.314,230.359 37.871,230.427 37.871 C 230.495 37.871,230.002 37.314,229.332 36.634 C 228.661 35.953,228.057 35.396,227.989 35.396 C 227.921 35.396,228.414 35.953,229.084 36.634 M174.739 37.067 L 173.886 37.995 174.814 37.142 C 175.678 36.348,175.856 36.139,175.667 36.139 C 175.626 36.139,175.208 36.556,174.739 37.067 M162.246 45.359 L 160.520 47.153 162.314 45.427 C 163.301 44.478,164.109 43.671,164.109 43.633 C 164.109 43.451,163.849 43.692,162.246 45.359 M157.507 76.361 C 157.508 77.314,157.553 77.674,157.606 77.160 C 157.660 76.647,157.659 75.867,157.604 75.428 C 157.550 74.988,157.506 75.408,157.507 76.361 M257.731 85.396 C 257.731 85.873,257.782 86.067,257.844 85.829 C 257.906 85.591,257.906 85.201,257.844 84.963 C 257.782 84.725,257.731 84.920,257.731 85.396 M143.910 90.965 C 143.910 92.871,143.949 93.618,143.996 92.625 C 144.043 91.632,144.043 90.073,143.995 89.160 C 143.948 88.247,143.909 89.059,143.910 90.965 M258.024 93.069 C 258.024 95.724,258.061 96.810,258.105 95.483 C 258.150 94.155,258.150 91.983,258.105 90.656 C 258.061 89.329,258.024 90.415,258.024 93.069 M144.117 97.525 C 144.117 98.001,144.168 98.196,144.230 97.958 C 144.292 97.720,144.292 97.330,144.230 97.092 C 144.168 96.853,144.117 97.048,144.117 97.525 M257.736 101.609 C 257.738 102.153,257.789 102.347,257.848 102.039 C 257.908 101.731,257.905 101.286,257.843 101.049 C 257.781 100.812,257.733 101.064,257.736 101.609 M318.379 251.238 C 318.453 251.511,318.866 251.615,319.945 251.632 L 321.411 251.655 320.055 251.555 C 319.309 251.500,318.604 251.323,318.489 251.161 C 318.343 250.955,318.309 250.979,318.379 251.238 M324.198 251.908 C 324.506 251.967,324.952 251.965,325.189 251.903 C 325.425 251.841,325.173 251.792,324.629 251.795 C 324.084 251.798,323.891 251.849,324.198 251.908 M72.092 255.121 C 72.330 255.183,72.720 255.183,72.958 255.121 C 73.196 255.059,73.001 255.008,72.525 255.008 C 72.048 255.008,71.853 255.059,72.092 255.121 M40.091 269.493 L 38.738 270.916 40.161 269.563 C 41.483 268.306,41.698 268.069,41.514 268.069 C 41.475 268.069,40.835 268.710,40.091 269.493 M374.187 289.542 C 374.133 289.644,374.171 290.006,374.272 290.347 C 374.444 290.925,374.457 290.913,374.480 290.161 C 374.504 289.385,374.395 289.154,374.187 289.542 M23.795 296.906 C 23.781 298.131,23.860 299.275,23.970 299.448 C 24.079 299.621,24.127 298.786,24.075 297.592 C 23.944 294.563,23.824 294.271,23.795 296.906 M272.862 317.079 C 272.862 318.373,272.903 318.902,272.954 318.255 C 273.005 317.608,273.005 316.550,272.954 315.903 C 272.903 315.257,272.862 315.786,272.862 317.079 M272.772 325.820 C 272.772 325.863,273.134 326.225,273.577 326.624 L 274.381 327.351 273.654 326.547 C 272.977 325.797,272.772 325.629,272.772 325.820 M128.028 327.228 C 128.028 327.704,128.079 327.899,128.141 327.661 C 128.203 327.423,128.203 327.033,128.141 326.795 C 128.079 326.556,128.028 326.751,128.028 327.228 M336.200 337.794 C 336.439 337.857,336.829 337.857,337.067 337.794 C 337.305 337.732,337.110 337.681,336.634 337.681 C 336.157 337.681,335.962 337.732,336.200 337.794 M71.349 339.032 C 71.587 339.094,71.977 339.094,72.215 339.032 C 72.454 338.970,72.259 338.919,71.782 338.919 C 71.306 338.919,71.111 338.970,71.349 339.032 M309.834 344.733 C 310.273 344.788,311.053 344.789,311.566 344.735 C 312.080 344.682,311.720 344.637,310.767 344.636 C 309.814 344.635,309.394 344.678,309.834 344.733 M320.610 344.732 C 320.986 344.789,321.543 344.787,321.847 344.729 C 322.152 344.670,321.844 344.623,321.163 344.625 C 320.483 344.627,320.234 344.675,320.610 344.732 M86.943 346.210 C 87.181 346.272,87.571 346.272,87.809 346.210 C 88.048 346.148,87.853 346.097,87.376 346.097 C 86.900 346.097,86.705 346.148,86.943 346.210 " stroke="none" fill="#310707" fill-rule="evenodd"></path><path id="path5" d="M189.914 100.371 C 189.917 100.916,189.967 101.109,190.027 100.802 C 190.086 100.494,190.084 100.048,190.022 99.811 C 189.960 99.575,189.911 99.827,189.914 100.371 M208.731 101.733 C 208.731 102.345,208.779 102.596,208.838 102.290 C 208.897 101.983,208.897 101.482,208.838 101.176 C 208.779 100.869,208.731 101.120,208.731 101.733 M235.090 125.918 C 235.397 125.977,235.843 125.975,236.080 125.913 C 236.316 125.851,236.064 125.802,235.520 125.805 C 234.975 125.808,234.782 125.858,235.090 125.918 M260.962 138.985 C 260.964 139.666,261.012 139.915,261.069 139.539 C 261.126 139.162,261.124 138.605,261.065 138.301 C 261.007 137.997,260.960 138.304,260.962 138.985 M191.399 143.989 C 191.773 144.046,192.386 144.046,192.760 143.989 C 193.134 143.932,192.828 143.886,192.079 143.886 C 191.330 143.886,191.024 143.932,191.399 143.989 M201.055 143.990 C 201.432 144.046,201.989 144.045,202.293 143.986 C 202.597 143.927,202.290 143.881,201.609 143.883 C 200.928 143.885,200.679 143.933,201.055 143.990 M115.408 156.863 C 115.919 156.917,116.754 156.917,117.265 156.863 C 117.775 156.810,117.358 156.766,116.337 156.766 C 115.316 156.766,114.898 156.810,115.408 156.863 M143.188 166.151 L 140.965 168.441 143.255 166.218 C 145.381 164.154,145.657 163.861,145.478 163.861 C 145.441 163.861,144.410 164.892,143.188 166.151 M293.374 186.634 C 293.374 187.110,293.425 187.305,293.487 187.067 C 293.550 186.829,293.550 186.439,293.487 186.200 C 293.425 185.962,293.374 186.157,293.374 186.634 M120.612 215.842 C 120.612 216.454,120.660 216.705,120.719 216.399 C 120.778 216.092,120.778 215.591,120.719 215.285 C 120.660 214.978,120.612 215.229,120.612 215.842 M273.094 217.327 C 273.094 218.075,273.140 218.382,273.197 218.007 C 273.254 217.633,273.254 217.020,273.197 216.646 C 273.140 216.272,273.094 216.578,273.094 217.327 M319.121 217.250 C 319.360 217.312,319.749 217.312,319.988 217.250 C 320.226 217.188,320.031 217.137,319.554 217.137 C 319.078 217.137,318.883 217.188,319.121 217.250 M273.097 224.876 C 273.098 225.693,273.144 225.997,273.199 225.552 C 273.254 225.108,273.253 224.439,273.197 224.067 C 273.140 223.695,273.095 224.059,273.097 224.876 M120.612 226.485 C 120.612 227.098,120.660 227.348,120.719 227.042 C 120.778 226.736,120.778 226.235,120.719 225.928 C 120.660 225.622,120.612 225.873,120.612 226.485 M74.814 235.821 C 75.189 235.878,75.801 235.878,76.176 235.821 C 76.550 235.764,76.244 235.718,75.495 235.718 C 74.746 235.718,74.440 235.764,74.814 235.821 M316.275 235.828 C 317.398 235.874,319.236 235.874,320.359 235.828 C 321.482 235.782,320.563 235.744,318.317 235.744 C 316.071 235.744,315.152 235.782,316.275 235.828 M310.585 236.066 C 310.892 236.125,311.338 236.123,311.575 236.061 C 311.811 235.999,311.559 235.951,311.015 235.954 C 310.470 235.956,310.277 236.007,310.585 236.066 M103.784 260.025 C 103.786 260.705,103.834 260.955,103.890 260.578 C 103.947 260.202,103.946 259.645,103.887 259.341 C 103.828 259.036,103.782 259.344,103.784 260.025 M143.069 276.114 C 143.809 276.863,144.469 277.475,144.538 277.475 C 144.606 277.475,144.056 276.863,143.317 276.114 C 142.577 275.365,141.917 274.752,141.849 274.752 C 141.781 274.752,142.330 275.365,143.069 276.114 M281.621 285.080 C 282.064 285.135,282.788 285.135,283.230 285.080 C 283.673 285.025,283.311 284.980,282.426 284.980 C 281.541 284.980,281.179 285.025,281.621 285.080 M127.351 294.554 C 128.160 295.371,128.877 296.040,128.945 296.040 C 129.013 296.040,128.407 295.371,127.599 294.554 C 126.791 293.738,126.074 293.069,126.006 293.069 C 125.938 293.069,126.543 293.738,127.351 294.554 M191.522 298.442 C 191.829 298.501,192.330 298.501,192.636 298.442 C 192.942 298.383,192.692 298.335,192.079 298.335 C 191.467 298.335,191.216 298.383,191.522 298.442 M201.179 298.442 C 201.487 298.502,201.932 298.499,202.169 298.437 C 202.405 298.375,202.153 298.327,201.609 298.330 C 201.064 298.332,200.871 298.383,201.179 298.442 M264.419 303.837 C 264.422 304.381,264.472 304.575,264.532 304.267 C 264.591 303.959,264.588 303.513,264.527 303.277 C 264.465 303.040,264.416 303.292,264.419 303.837 M135.970 306.188 C 135.970 307.073,136.015 307.435,136.070 306.993 C 136.125 306.550,136.125 305.826,136.070 305.384 C 136.015 304.941,135.970 305.303,135.970 306.188 M207.736 340.470 C 207.738 341.015,207.789 341.208,207.848 340.901 C 207.908 340.593,207.905 340.147,207.843 339.910 C 207.781 339.674,207.733 339.926,207.736 340.470 M188.676 343.688 C 188.679 344.233,188.730 344.426,188.789 344.118 C 188.848 343.811,188.846 343.365,188.784 343.128 C 188.722 342.892,188.674 343.144,188.676 343.688 " stroke="none" fill="#44145c" fill-rule="evenodd"></path><path id="path6" d="M208.721 100.000 C 208.721 100.476,208.772 100.671,208.834 100.433 C 208.896 100.195,208.896 99.805,208.834 99.567 C 208.772 99.329,208.721 99.524,208.721 100.000 M136.691 135.891 C 136.691 136.368,136.742 136.563,136.804 136.324 C 136.867 136.086,136.867 135.696,136.804 135.458 C 136.742 135.220,136.691 135.415,136.691 135.891 M194.988 143.996 C 195.975 144.043,197.590 144.043,198.577 143.996 C 199.564 143.949,198.756 143.910,196.782 143.910 C 194.808 143.910,194.001 143.949,194.988 143.996 M126.098 149.567 L 125.371 150.371 126.176 149.644 C 126.618 149.244,126.980 148.882,126.980 148.840 C 126.980 148.649,126.776 148.817,126.098 149.567 M120.602 217.822 C 120.602 218.298,120.653 218.493,120.715 218.255 C 120.777 218.017,120.777 217.627,120.715 217.389 C 120.653 217.150,120.602 217.345,120.602 217.822 M321.344 217.250 L 322.266 217.356 322.342 221.982 L 322.418 226.609 322.410 221.906 L 322.401 217.203 321.411 217.173 L 320.421 217.144 321.344 217.250 M273.110 221.163 C 273.111 222.525,273.152 223.050,273.203 222.331 C 273.253 221.612,273.252 220.498,273.201 219.856 C 273.151 219.213,273.110 219.802,273.110 221.163 M120.607 224.381 C 120.610 224.926,120.660 225.119,120.720 224.811 C 120.779 224.504,120.777 224.058,120.715 223.821 C 120.653 223.585,120.604 223.837,120.607 224.381 M117.392 287.554 C 117.768 287.611,118.325 287.609,118.630 287.550 C 118.934 287.492,118.626 287.445,117.946 287.447 C 117.265 287.449,117.016 287.497,117.392 287.554 M195.123 298.452 C 196.184 298.498,197.855 298.498,198.836 298.451 C 199.816 298.404,198.948 298.366,196.906 298.366 C 194.864 298.367,194.061 298.405,195.123 298.452 M163.676 318.487 C 163.914 318.550,164.304 318.550,164.542 318.487 C 164.780 318.425,164.585 318.374,164.109 318.374 C 163.632 318.374,163.438 318.425,163.676 318.487 " stroke="none" fill="#190926" fill-rule="evenodd"></path><path id="path7" d="M164.712 42.884 L 163.985 43.688 164.790 42.961 C 165.232 42.561,165.594 42.199,165.594 42.157 C 165.594 41.965,165.390 42.134,164.712 42.884 M239.233 43.564 C 239.903 44.245,240.507 44.802,240.575 44.802 C 240.644 44.802,240.151 44.245,239.480 43.564 C 238.810 42.884,238.205 42.327,238.137 42.327 C 238.069 42.327,238.562 42.884,239.233 43.564 M257.978 98.515 C 257.978 98.991,258.029 99.186,258.091 98.948 C 258.154 98.710,258.154 98.320,258.091 98.082 C 258.029 97.843,257.978 98.038,257.978 98.515 M162.129 105.074 C 161.527 105.687,161.091 106.188,161.159 106.188 C 161.227 106.188,161.775 105.687,162.376 105.074 C 162.977 104.462,163.414 103.960,163.346 103.960 C 163.278 103.960,162.730 104.462,162.129 105.074 M248.132 108.973 L 247.153 110.025 248.205 109.046 C 248.784 108.508,249.257 108.035,249.257 107.994 C 249.257 107.807,249.042 107.994,248.132 108.973 M157.907 109.592 L 157.054 110.520 157.983 109.667 C 158.847 108.873,159.025 108.663,158.836 108.663 C 158.794 108.663,158.377 109.081,157.907 109.592 M353.465 246.603 C 353.465 246.640,354.329 247.503,355.384 248.521 L 357.302 250.371 355.452 248.453 C 353.733 246.671,353.465 246.422,353.465 246.603 M361.510 268.812 C 362.593 269.901,363.534 270.792,363.602 270.792 C 363.670 270.792,362.840 269.901,361.757 268.812 C 360.675 267.723,359.733 266.832,359.665 266.832 C 359.597 266.832,360.427 267.723,361.510 268.812 M23.770 299.505 C 23.770 299.709,23.878 300.043,24.010 300.248 C 24.223 300.578,24.250 300.578,24.250 300.248 C 24.250 300.043,24.142 299.709,24.010 299.505 C 23.797 299.175,23.770 299.175,23.770 299.505 M296.163 323.515 C 296.972 324.332,297.689 325.000,297.757 325.000 C 297.825 325.000,297.219 324.332,296.411 323.515 C 295.603 322.698,294.886 322.030,294.817 322.030 C 294.749 322.030,295.355 322.698,296.163 323.515 M104.703 325.619 C 103.689 326.640,102.915 327.475,102.983 327.475 C 103.051 327.475,103.936 326.640,104.950 325.619 C 105.965 324.598,106.739 323.762,106.671 323.762 C 106.603 323.762,105.717 324.598,104.703 325.619 M275.124 328.218 C 275.656 328.762,276.146 329.208,276.214 329.208 C 276.282 329.208,275.903 328.762,275.371 328.218 C 274.840 327.673,274.349 327.228,274.281 327.228 C 274.213 327.228,274.592 327.673,275.124 328.218 M38.865 329.363 C 38.860 329.781,39.530 330.270,39.710 329.980 C 39.792 329.846,39.746 329.667,39.608 329.582 C 39.470 329.496,39.355 329.516,39.353 329.626 C 39.351 329.737,39.241 329.660,39.109 329.455 C 38.977 329.251,38.867 329.210,38.865 329.363 M331.745 337.807 C 332.528 337.856,333.809 337.856,334.592 337.807 C 335.374 337.758,334.734 337.717,333.168 337.717 C 331.603 337.717,330.962 337.758,331.745 337.807 M66.780 339.045 C 67.636 339.093,68.972 339.093,69.750 339.044 C 70.527 338.995,69.827 338.955,68.193 338.956 C 66.559 338.956,65.923 338.996,66.780 339.045 M80.879 346.470 C 81.730 346.519,83.122 346.519,83.973 346.470 C 84.824 346.422,84.127 346.383,82.426 346.383 C 80.724 346.383,80.028 346.422,80.879 346.470 " stroke="none" fill="#180404" fill-rule="evenodd"></path><path id="path8" d="" stroke="none" fill="#10180c" fill-rule="evenodd"></path></g></svg>